<?xml version="1.0" standalone="no"?>
<!DOCTYPE svg PUBLIC "-//W3C//DTD SVG 20010904//EN"
 "http://www.w3.org/TR/2001/REC-SVG-20010904/DTD/svg10.dtd">
<svg version="1.0" xmlns="http://www.w3.org/2000/svg"
 width="293.000000pt" height="279.000000pt" viewBox="0 0 293.000000 279.000000"
 preserveAspectRatio="xMidYMid meet">
<metadata>
Created by potrace 1.15, written by Peter Selinger 2001-2017
</metadata>
<g transform="translate(0.000000,279.000000) scale(0.100000,-0.100000)"
fill="#000000" stroke="none">
<path d="M1215 2775 c-330 -58 -609 -205 -837 -443 -251 -262 -378 -576 -378
-937 0 -158 20 -284 66 -425 138 -415 480 -749 916 -895 183 -60 249 -70 483
-70 234 0 300 10 483 70 359 120 663 374 831 694 102 196 151 399 151 626 0
227 -49 430 -151 626 -134 255 -383 494 -645 619 -97 47 -256 101 -364 125
-104 23 -445 29 -555 10z m360 -14 c596 -50 1084 -420 1265 -959 84 -252 84
-562 0 -814 -114 -338 -360 -625 -681 -792 -434 -227 -954 -227 -1388 0 -381
198 -655 565 -727 974 -22 124 -22 326 0 450 72 409 346 776 727 974 203 106
400 157 674 174 11 1 70 -2 130 -7z"/>
<path d="M1955 2209 c-125 -18 -306 -138 -389 -258 -16 -23 -32 -41 -36 -41
-4 0 -10 26 -13 58 -8 77 -33 146 -66 181 -53 56 -182 63 -477 24 -119 -15
-121 -15 -162 6 -61 31 -141 29 -181 -4 -16 -15 -35 -41 -42 -59 -7 -20 -25
-40 -45 -51 -63 -34 -81 -85 -58 -171 8 -32 28 -79 44 -105 l29 -47 -9 -177
c-8 -153 -12 -179 -30 -202 -24 -31 -26 -91 -3 -148 12 -31 15 -76 13 -207 -2
-193 9 -243 66 -302 44 -46 95 -71 164 -84 102 -19 183 12 207 79 7 19 15 105
19 192 4 105 10 159 18 161 6 2 65 11 130 19 136 19 200 45 231 94 11 18 23
32 26 33 3 0 11 -18 18 -39 6 -22 28 -63 47 -93 20 -29 43 -77 50 -106 36
-138 117 -241 231 -295 59 -27 81 -32 169 -35 55 -2 126 1 157 8 140 29 287
138 342 255 41 86 46 201 13 265 -13 25 -38 55 -57 67 -52 35 -94 30 -178 -21
-149 -89 -307 -113 -359 -53 -12 14 -25 44 -29 65 -11 69 25 208 76 292 l22
35 12 -42 c52 -176 262 -191 420 -29 99 102 156 252 135 353 -13 60 -42 105
-149 228 -116 134 -208 174 -356 154z m144 -98 c22 -12 55 -39 73 -62 18 -23
54 -65 79 -93 26 -28 54 -66 64 -85 61 -121 -100 -370 -242 -374 -38 -1 -87
31 -91 60 -2 10 18 49 42 87 47 70 74 142 79 211 2 37 0 40 -23 37 -41 -4
-129 -63 -199 -132 -80 -78 -154 -193 -188 -292 -31 -88 -41 -217 -23 -274 40
-126 158 -177 323 -140 66 15 201 73 250 108 43 32 76 -40 57 -125 -21 -100
-91 -183 -195 -231 -178 -84 -382 -47 -469 84 -31 47 -66 140 -66 175 0 12
-14 40 -31 61 -113 140 -125 376 -32 599 123 292 409 479 592 386z m-1366 3
c18 -9 39 -22 47 -29 12 -10 39 -9 135 6 157 24 381 35 417 21 20 -8 30 -22
39 -54 18 -66 17 -164 -2 -183 -30 -30 -126 -47 -456 -81 l-53 -5 0 -186 0
-186 43 6 c113 17 284 28 324 22 55 -8 67 -32 53 -107 -14 -74 -32 -95 -93
-112 -62 -18 -200 -36 -274 -36 -29 0 -53 -1 -54 -2 0 -2 -4 -97 -8 -211 -6
-164 -10 -211 -22 -218 -22 -15 -105 -2 -150 23 -68 38 -73 58 -70 258 2 140
-1 182 -13 212 -21 50 -20 83 3 99 17 13 20 35 29 234 l9 220 -25 34 c-31 41
-65 129 -58 148 3 8 26 23 51 34 30 13 45 26 45 39 0 32 19 70 35 70 9 0 30
-7 48 -16z m697 -393 c0 -5 -7 -28 -16 -52 -8 -24 -21 -71 -28 -104 -12 -56
-15 -60 -37 -55 -13 3 -97 5 -187 5 l-162 0 0 72 0 72 33 5 c17 3 88 12 157
20 69 9 145 22 170 30 55 17 70 19 70 7z"/>
</g>
</svg>
